<svg xmlns="http://www.w3.org/2000/svg" viewBox="0 0 94 30"><defs><style>.cls-1{fill:#333;}</style></defs><title>logo</title><g id="hash"><path class="cls-1" d="M14.81,20.19l-1.27,9.14h-2l1.27-9.14H7L5.72,29.33h-2l1.27-9.14H.43V18.35H5.18L6.08,12H1.58V10.12H6.33L7.6,1H9.65L8.38,10.12h5.77L15.42,1h2L16.2,10.12h4.3V12H16l-.9,6.39h4.3v1.84ZM7.23,18.35H13L13.9,12H8.13Z"/><path class="cls-1" d="M31.65,16.84a7.56,7.56,0,0,1-5.78-.11A7.05,7.05,0,0,1,23.57,15a7.34,7.34,0,0,1-1.45-2.48,8.64,8.64,0,0,1-.5-2.91,10.86,10.86,0,0,1,.47-3.2,8,8,0,0,1,1.38-2.67,6.63,6.63,0,0,1,2.29-1.82A7.15,7.15,0,0,1,29,1.25a9.48,9.48,0,0,1,2.36.29,6,6,0,0,1,2,.92,5.33,5.33,0,0,1,1.47,1.59,6.08,6.08,0,0,1,.81,2.31h-2A4.1,4.1,0,0,0,33,4.84a3.58,3.58,0,0,0-1-1,4.5,4.5,0,0,0-1.37-.62A6.62,6.62,0,0,0,29,3a4.68,4.68,0,0,0-4.05,2A6.41,6.41,0,0,0,24,7.11a9.19,9.19,0,0,0-.31,2.4A7.76,7.76,0,0,0,24,11.83a6.07,6.07,0,0,0,1,2A4.81,4.81,0,0,0,29,15.66a5.43,5.43,0,0,0,2.13-.39,4.47,4.47,0,0,0,1.57-1.07,4.58,4.58,0,0,0,1-1.59,5.34,5.34,0,0,0,.28-2H29V8.91h6.75V17H34.44L33.9,15.1A5.23,5.23,0,0,1,31.65,16.84Z"/><path class="cls-1" d="M38.23,6.29a7.68,7.68,0,0,1,1.4-2.58,6.71,6.71,0,0,1,2.3-1.79,8,8,0,0,1,6.43,0,6.84,6.84,0,0,1,2.31,1.79,7.66,7.66,0,0,1,1.39,2.58,9.89,9.89,0,0,1,.46,3,9.89,9.89,0,0,1-.46,3,7.66,7.66,0,0,1-1.39,2.58,6.82,6.82,0,0,1-2.31,1.78,8.28,8.28,0,0,1-6.43,0,6.68,6.68,0,0,1-2.3-1.78,7.68,7.68,0,0,1-1.4-2.58,10.21,10.21,0,0,1,0-6.06Zm1.89,5.33a6.21,6.21,0,0,0,1,2,4.87,4.87,0,0,0,1.66,1.46,5.58,5.58,0,0,0,4.83,0,4.78,4.78,0,0,0,1.66-1.46,6.21,6.21,0,0,0,1-2,9,9,0,0,0,0-4.6,6.36,6.36,0,0,0-1-2,4.76,4.76,0,0,0-1.66-1.45,5.58,5.58,0,0,0-4.83,0A4.85,4.85,0,0,0,41.07,5a6.36,6.36,0,0,0-1,2,9,9,0,0,0,0,4.6Z"/><path class="cls-1" d="M54.32,5a4.74,4.74,0,0,1,.94-1.71,4.38,4.38,0,0,1,1.59-1.13A5.25,5.25,0,0,1,59,1.73,5.68,5.68,0,0,1,60.87,2a4.41,4.41,0,0,1,1.52.84,4.06,4.06,0,0,1,1,1.37,4.54,4.54,0,0,1,.37,1.9,4.76,4.76,0,0,1-.31,1.79,5.39,5.39,0,0,1-.83,1.39,7,7,0,0,1-1.19,1.11c-.44.33-.9.65-1.38.95l-1.42.85a13,13,0,0,0-1.31.89,6.13,6.13,0,0,0-1,1,3,3,0,0,0-.55,1.26h7.85V17h-10a8.1,8.1,0,0,1,.48-2.32,6,6,0,0,1,1-1.67,7.1,7.1,0,0,1,1.32-1.25q.73-.54,1.53-1c.64-.4,1.21-.77,1.7-1.11a7.22,7.22,0,0,0,1.22-1,3.72,3.72,0,0,0,.73-1.12,3.62,3.62,0,0,0,.25-1.41A2.63,2.63,0,0,0,61.61,5,2.74,2.74,0,0,0,61,4.1,2.7,2.7,0,0,0,60,3.54a3.33,3.33,0,0,0-1.14-.2,2.67,2.67,0,0,0-1.37.34,2.8,2.8,0,0,0-.94.87,3.62,3.62,0,0,0-.53,1.22,5.27,5.27,0,0,0-.14,1.37H54.09A6.09,6.09,0,0,1,54.32,5Z"/><path d="M30.34,28.39h-1l-.23-4.11c-.07-1.31-.17-3-.16-3.93h0c-.3,1-.67,2.15-1.12,3.42l-1.63,4.59h-.73l-1.52-4.49c-.45-1.32-.8-2.47-1.05-3.52h0c0,1.11-.1,2.62-.18,4l-.26,4h-.94l.63-9.14h1.23l1.6,4.65c.39,1.13.69,2.11.93,3.05h0c.23-.92.54-1.88,1-3.05l1.67-4.65h1.24Z"/><path d="M38.43,24.72c0,2.75-1.42,3.82-3.24,3.82s-3.06-1-3.06-3.76V19.27h1v5.52c0,2.08.91,2.92,2.11,2.92s2.19-.89,2.19-2.92V19.27h1Z"/><path d="M46.48,28.39H45.31l-3-4.58-.85,1v3.58h-1V19.25h1v4.47h.05c.22-.35.48-.69.7-1L45,19.25h1.22L43,23.14Z"/><path d="M54,28.39H52.9l-1-3H48.74l-1,3h-1l3-9.14h1.16Zm-2.25-3.75-.9-2.71c-.19-.63-.34-1.2-.46-1.74h0c-.12.55-.29,1.13-.45,1.7l-.92,2.75Z"/><path d="M55.29,19.25h1v9.14h-1Z"/><path d="M62.42,20.38A3.11,3.11,0,0,0,60.81,20c-1.27,0-1.75.78-1.75,1.44,0,.9.55,1.36,1.78,1.87,1.47.63,2.23,1.38,2.23,2.69S62,28.52,60,28.52A4.27,4.27,0,0,1,57.86,28l.28-.83a3.65,3.65,0,0,0,2,.57c1.23,0,1.95-.66,1.95-1.65s-.49-1.45-1.68-1.93c-1.38-.51-2.32-1.32-2.32-2.58a2.52,2.52,0,0,1,2.8-2.41,3.79,3.79,0,0,1,1.87.43Z"/><path d="M71,28.39H70V24H65.66v4.36h-1V19.27h1v3.89H70V19.27h1Z"/><path d="M73.06,19.25h1v9.14h-1Z"/><path d="M84.74,28.39h-1l-.23-4.11c-.07-1.31-.16-3-.15-3.93h0c-.3,1-.67,2.15-1.11,3.42l-1.63,4.59h-.74l-1.52-4.49c-.44-1.32-.79-2.47-1-3.52h0c0,1.11-.09,2.62-.18,4l-.25,4h-.95l.64-9.14h1.22l1.61,4.65C79.72,25,80,26,80.26,27h0c.23-.92.54-1.88,1-3.05l1.66-4.65h1.25Z"/><path d="M93.06,28.39H92l-1-3H87.85l-1,3h-1l3-9.14H90Zm-2.24-3.75-.9-2.71c-.19-.63-.35-1.2-.47-1.74h0c-.12.55-.29,1.13-.46,1.7l-.91,2.75Z"/></g></svg>